<?xml version="1.0" encoding="utf-8"?>
<!-- Generator: Adobe Illustrator 26.3.1, SVG Export Plug-In . SVG Version: 6.00 Build 0)  -->
<svg version="1.1" id="Capa_1" xmlns="http://www.w3.org/2000/svg" xmlns:xlink="http://www.w3.org/1999/xlink" x="0px" y="0px"
	 viewBox="0 0 512 512" style="enable-background:new 0 0 512 512;" xml:space="preserve">
<path d="M322.2,337.6c-40.5,5.9-84.1,13.4-113,42.3l-39.5,39.5L154.3,404l-15.4,15.4c-8.5,8.5-7.5,22.7-6.1,34.7
	c1.1,9.6-2,19.6-9.4,27c-12.8,12.8-33.5,12.8-46.3,0s-12.8-33.5,0-46.3c-12.8,12.8-33.5,12.8-46.3,0s-12.8-33.5,0-46.3
	c7.4-7.4,17.4-10.5,27-9.4c12,1.4,26.2,2.4,34.7-6.1l15.4-15.4l-15.4-15.4l39.5-39.5c28.9-28.9,36.4-72.5,42.3-113
	c5.6-38.3,24.9-77.6,57-109.8c68.1-68.1,168.3-78.5,223.6-23.1c55.4,55.4,45,155.5-23.1,223.6C399.8,312.7,360.5,332,322.2,337.6
	L322.2,337.6z"/>
</svg>
