<?xml version="1.0" encoding="utf-8"?>
<!-- Generator: Adobe Illustrator 26.3.1, SVG Export Plug-In . SVG Version: 6.00 Build 0)  -->
<svg version="1.1" id="Layer_1" xmlns="http://www.w3.org/2000/svg" xmlns:xlink="http://www.w3.org/1999/xlink" x="0px" y="0px"
	 viewBox="0 0 480 480" style="enable-background:new 0 0 480 480;" xml:space="preserve">
<g>
	<g>
		<g>
			<path d="M208,0H16C7.2,0,0,7.2,0,16v192c0,8.8,7.2,16,16,16h192c8.8,0,16-7.2,16-16V16C224,7.2,216.8,0,208,0z M192,192H32V32
				h160V192z"/>
			<path d="M464,0H272c-8.8,0-16,7.2-16,16v192c0,8.8,7.2,16,16,16h192c8.8,0,16-7.2,16-16V16C480,7.2,472.8,0,464,0z M448,192H288
				V32h160V192z"/>
			<path d="M208,256H16c-8.8,0-16,7.2-16,16v192c0,8.8,7.2,16,16,16h192c8.8,0,16-7.2,16-16V272C224,263.2,216.8,256,208,256z
				 M192,448H32V288h160V448z"/>
			<path d="M464,256H272c-8.8,0-16,7.2-16,16v192c0,8.8,7.2,16,16,16h192c8.8,0,16-7.2,16-16V272C480,263.2,472.8,256,464,256z
				 M448,448H288V288h160V448z"/>
		</g>
	</g>
</g>
</svg>
