<?xml version="1.0" encoding="utf-8"?>
<!-- Generator: Adobe Illustrator 26.3.1, SVG Export Plug-In . SVG Version: 6.00 Build 0)  -->
<svg version="1.1" id="Capa_1" xmlns="http://www.w3.org/2000/svg" xmlns:xlink="http://www.w3.org/1999/xlink" x="0px" y="0px"
	 viewBox="0 0 512 512" style="enable-background:new 0 0 512 512;" xml:space="preserve">
<g>
	<g>
		<path d="M394,161.5l118-118l-21.2-21.2L371.4,141.6c1,4.5,1.8,9.1,2.2,13.7C380.7,156.8,387.5,158.8,394,161.5z"/>
		<path d="M253.1,210.2c18.3-31.7,51.5-53.8,90-56.6c-6.4-39.8-41-70.3-82.5-70.3c-42.3,0-77.3,31.6-82.8,72.3
			C210,162.3,237.2,182.6,253.1,210.2L253.1,210.2z"/>
		<path d="M460.8,309.1v-27.3H45.5v27.3c0,50.1,40.7,90.8,90.8,90.8H370C420.1,399.9,460.8,359.2,460.8,309.1L460.8,309.1z"/>
		<path d="M351.6,183.2c-41,0-75.1,29.6-82.2,68.6h164.4C426.7,212.9,392.5,183.2,351.6,183.2z"/>
		<path d="M236.9,251.8c-7.1-39-41.2-68.6-82.2-68.6s-75.1,29.6-82.2,68.6H236.9z"/>
	</g>
	<path d="M0,429.9v25.7l35.4,34.1h441.2l35.4-34.1v-25.7H0z"/>
</g>
</svg>
