<?xml version="1.0" encoding="utf-8"?>
<!-- Generator: Adobe Illustrator 26.3.1, SVG Export Plug-In . SVG Version: 6.00 Build 0)  -->
<svg version="1.1" id="Capa_1" xmlns="http://www.w3.org/2000/svg" xmlns:xlink="http://www.w3.org/1999/xlink" x="0px" y="0px"
	 viewBox="0 0 512 512" style="enable-background:new 0 0 512 512;" xml:space="preserve">
<g>
	<g>
		<g>
			<path d="M502.5,329h-99.2l-21.6,24.4c-1.7,2-4.2,3.1-6.8,3.1c-2.6,0-5.1-1.1-6.8-3.1l-37.3-42c-17.8,23.1-45.6,36.4-74.7,35.9
				c-29.2,0.5-56.9-12.8-74.7-35.9l-37.3,42c-1.7,2-4.2,3.1-6.8,3.1s-5.1-1.1-6.8-3.1L108.7,329H9.5c-2.4,0.1-4.6,1.3-6,3.3
				c-2.3,3-3.6,6.7-3.5,10.4c0,32.8,20.9,59.4,46.7,59.4h418.6c12.8-0.3,24.7-6.5,32.3-16.7c9.6-12.2,14.6-27.2,14.3-42.7
				C512,335.4,507.6,329,502.5,329z M45,378.2L45,378.2c-0.5,1.1-1.1,2.1-1.9,3c-2.6,2.6-6.6,3.4-10,1.9c-1.1-0.5-2.1-1.1-3-1.9
				c-0.8-0.9-1.5-1.9-1.9-3c-0.5-1.1-0.8-2.3-0.7-3.5c0-1.2,0.3-2.4,0.7-3.5c0.4-1.1,1.1-2.1,1.9-3c0.9-0.8,1.9-1.5,3-1.9
				c2.2-1,4.7-1,7,0c1.1,0.4,2.1,1.1,3,1.9c0.8,0.9,1.5,1.9,1.9,3C46,373.4,46,376,45,378.2z M72.4,359.9c-0.5,1.1-1.1,2.1-1.9,3
				c-0.9,0.8-1.9,1.5-3,1.9c-3.4,1.5-7.3,0.7-10-1.9c-0.8-0.9-1.5-1.9-1.9-3c-0.5-1.1-0.8-2.3-0.7-3.5c0-1.2,0.3-2.4,0.7-3.5
				s1.1-2.1,1.9-3c0.9-0.8,1.9-1.5,3-1.9c2.2-1,4.7-1,7,0c1.1,0.5,2.1,1.1,3,1.9c0.8,0.9,1.5,1.9,1.9,3c0.5,1.1,0.7,2.3,0.7,3.5
				C73.2,357.6,72.9,358.8,72.4,359.9z M99.8,378.2L99.8,378.2c-0.5,1.1-1.1,2.1-1.9,3c-2.6,2.6-6.6,3.4-10,1.9
				c-2.3-0.8-4.1-2.6-4.9-4.9c-0.5-1.1-0.8-2.3-0.7-3.5c0-1.2,0.3-2.4,0.7-3.5c0.4-1.1,1.1-2.1,1.9-3c0.9-0.8,1.9-1.5,3-1.9
				c2.2-1,4.7-1,7,0c1.1,0.4,2.1,1.1,3,1.9c0.8,0.9,1.5,1.9,1.9,3C100.8,373.4,100.8,376,99.8,378.2z M173,378.2
				c-0.5,1.1-1.1,2.1-1.9,3c-0.9,0.8-1.9,1.5-3,1.9c-2.2,1-4.7,1-7,0c-2.3-0.8-4.1-2.6-4.9-4.9c-1-2.2-1-4.7,0-6.9
				c0.4-1.1,1.1-2.1,1.9-3c2.1-2.2,5.3-3.2,8.3-2.6s5.5,2.7,6.6,5.6C174,373.4,174,376,173,378.2L173,378.2z M200.4,359.9
				c-0.5,1.1-1.1,2.1-1.9,3c-0.9,0.8-1.9,1.5-3,1.9c-3.4,1.5-7.3,0.7-10-1.9c-0.8-0.9-1.5-1.9-2-3c-0.4-1.1-0.7-2.3-0.6-3.5
				c0-1.2,0.2-2.4,0.7-3.5c0.8-2.3,2.6-4.1,4.9-4.9c2.2-1,4.7-1,7,0c1.1,0.5,2.1,1.1,3,1.9c0.8,0.9,1.5,1.9,1.9,3
				c0.5,1.1,0.7,2.3,0.7,3.5C201.2,357.6,200.9,358.8,200.4,359.9z M227.8,378.2c-0.5,1.1-1.1,2.1-1.9,3c-0.9,0.8-1.9,1.5-3,1.9
				c-2.2,1-4.7,1-7,0c-2.3-0.8-4.1-2.6-4.9-4.9c-1-2.2-1-4.7,0-6.9c0.4-1.1,1.1-2.1,1.9-3c2.1-2.2,5.3-3.2,8.3-2.6s5.5,2.7,6.6,5.6
				C228.8,373.4,228.8,376,227.8,378.2L227.8,378.2z M301.1,378.2c-0.5,1.1-1.2,2.1-2,3c-0.9,0.8-1.9,1.5-3,1.9
				c-3.4,1.5-7.3,0.7-10-1.9c-0.8-0.9-1.5-1.9-2-3c-0.4-1.1-0.7-2.3-0.6-3.5c0-1.2,0.2-2.4,0.7-3.5c0.4-1.1,1.1-2.1,1.9-3
				c0.9-0.8,1.9-1.5,3-1.9c2.2-1,4.7-1,7,0c1.1,0.4,2.1,1.1,3,1.9c0.8,0.9,1.5,1.9,1.9,3c0.5,1.1,0.8,2.3,0.7,3.5
				C301.7,375.9,301.5,377.1,301.1,378.2z M328.4,359.9c-0.5,1.1-1.1,2.1-1.9,3c-0.9,0.8-1.9,1.5-3,1.9c-3.4,1.5-7.3,0.7-10-1.9
				c-2.6-2.6-3.4-6.6-1.9-10c0.8-2.3,2.6-4.1,4.9-4.9c2.2-1,4.7-1,7,0c1.1,0.5,2.1,1.1,3,1.9c0.8,0.9,1.5,1.9,1.9,3
				c0.5,1.1,0.7,2.3,0.7,3.5C329.2,357.6,328.9,358.8,328.4,359.9z M355.9,378.2c-0.5,1.1-1.2,2.1-2,3c-0.9,0.8-1.9,1.5-3,1.9
				c-3.4,1.5-7.3,0.7-10-1.9c-0.8-0.9-1.5-1.9-2-3c-0.4-1.1-0.7-2.3-0.6-3.5c0-1.2,0.2-2.4,0.7-3.5c0.4-1.1,1.1-2.1,1.9-3
				c0.9-0.8,1.9-1.5,3-1.9c2.2-1,4.7-1,7,0c1.1,0.4,2.1,1.1,3,1.9c0.8,0.9,1.5,1.9,1.9,3c0.5,1.1,0.8,2.3,0.7,3.5
				C356.6,375.9,356.4,377.1,355.9,378.2z M429,378.2L429,378.2c-0.5,1.1-1.1,2.1-1.9,3c-0.9,0.8-1.9,1.5-3,1.9c-2.2,1-4.7,1-7,0
				c-2.3-0.8-4.1-2.6-4.9-4.9c-1-2.2-1-4.7,0-6.9c0.4-1.1,1.1-2.1,1.9-3c2.2-2.2,5.3-3.1,8.3-2.5c0.6,0.1,1.1,0.3,1.6,0.6
				c0.6,0.2,1.1,0.5,1.6,0.8s0.9,0.7,1.4,1.1c0.8,0.9,1.5,1.9,1.9,3C430,373.4,430,376,429,378.2z M456.4,359.9
				c-0.5,1.1-1.1,2.1-1.9,3c-0.9,0.8-1.9,1.5-3,1.9c-3.4,1.5-7.3,0.7-10-1.9c-2.6-2.6-3.4-6.6-1.9-10c0.8-2.3,2.6-4.1,4.9-4.9
				c2.2-1,4.7-1,7,0c1.1,0.5,2.1,1.1,3,1.9c0.8,0.9,1.5,1.9,1.9,3c0.5,1.1,0.7,2.3,0.7,3.5C457.2,357.6,456.9,358.8,456.4,359.9z
				 M483.8,378.2L483.8,378.2c-0.5,1.1-1.1,2.1-1.9,3c-0.9,0.8-1.9,1.5-3,1.9c-2.2,1-4.7,1-7,0c-2.3-0.8-4.1-2.6-4.9-4.9
				c-1-2.2-1-4.7,0-6.9c0.4-1.1,1.1-2.1,1.9-3c0.4-0.4,0.9-0.8,1.4-1.1c0.5-0.3,1.1-0.6,1.6-0.8c0.5-0.3,1.1-0.5,1.6-0.6
				c1.2-0.3,2.5-0.3,3.7,0c0.6,0.1,1.1,0.3,1.6,0.6c0.6,0.2,1.1,0.5,1.6,0.8s0.9,0.7,1.4,1.1c0.8,0.9,1.5,1.9,1.9,3
				C484.8,373.4,484.8,376,483.8,378.2z"/>
			<path d="M318.1,297.2L318.1,297.2l-20.5-23.1h-83.2l-20.5,23.1c14.4,20,37.5,31.8,62.1,31.8S303.7,317.2,318.1,297.2z"/>
			<polygon points="18.3,274.1 18.3,310.7 92.4,310.7 59.9,274.1 			"/>
			<polygon points="189.9,274.1 84.4,274.1 137.1,333.5 			"/>
			<polygon points="374.9,333.5 427.6,274.1 322.1,274.1 			"/>
			<path d="M354.2,119.4c7.4,10.5,11.4,23,11.5,35.9c0,5-4.1,9.1-9.1,9.1s-9.1-4.1-9.1-9.1c-0.5-18-11.2-34.2-27.6-41.7
				c-15.1-2-30.7-3.2-46.7-3.7c12.3,11.9,19.3,28.3,19.5,45.4c0,5-4.1,9.1-9.1,9.1s-9.1-4.1-9.1-9.1c-0.6-22.6-17.2-41.6-39.5-45.2
				c-11.1,0.5-22,1.3-32.6,2.4c10.9,11.6,17,26.9,17.3,42.8c0,5-4.1,9.1-9.1,9.1s-9.1-4.1-9.1-9.1c-0.4-16.4-9.4-31.3-23.6-39.5
				C74.7,132.5,0,181,0,238.2v17.6h512v-17.6C512,184.8,446.7,138.8,354.2,119.4z"/>
			<polygon points="493.7,274.1 452.1,274.1 419.6,310.7 493.7,310.7 			"/>
		</g>
	</g>
</g>
</svg>
