<?xml version="1.0" encoding="utf-8"?>
<!-- Generator: Adobe Illustrator 26.3.1, SVG Export Plug-In . SVG Version: 6.00 Build 0)  -->
<svg version="1.1" id="Capa_1" xmlns="http://www.w3.org/2000/svg" xmlns:xlink="http://www.w3.org/1999/xlink" x="0px" y="0px"
	 viewBox="0 0 512 512" style="enable-background:new 0 0 512 512;" xml:space="preserve">
<g>
	<g>
		<path d="M256,512c141.3,0,256-114.7,256-256S397.3,0,256,0S0,114.7,0,256S114.7,512,256,512z M237.7,109.7
			c0-10.1,8.2-18.3,18.3-18.3s18.3,8.2,18.3,18.3v137.5l84.6,67.7c7.9,6.3,9.1,17.8,2.8,25.7c-3.6,4.5-8.9,6.9-14.3,6.9
			c-4,0-8-1.3-11.4-4l-91.4-73.1c-4.3-3.5-6.9-8.7-6.9-14.3L237.7,109.7L237.7,109.7z"/>
	</g>
</g>
</svg>
