<svg viewBox="0 0 24 23" fill="none" xmlns="http://www.w3.org/2000/svg">
<path d="M8.37503 22.2222C9.33385 22.2222 10.1111 21.4449 10.1111 20.4861C10.1111 19.5273 9.33385 18.75 8.37503 18.75C7.4162 18.75 6.63892 19.5273 6.63892 20.4861C6.63892 21.4449 7.4162 22.2222 8.37503 22.2222Z" fill="#D0102D"/>
<path d="M17.4027 22.2222C18.3616 22.2222 19.1388 21.4449 19.1388 20.4861C19.1388 19.5273 18.3616 18.75 17.4027 18.75C16.4439 18.75 15.6666 19.5273 15.6666 20.4861C15.6666 21.4449 16.4439 22.2222 17.4027 22.2222Z" fill="#D0102D"/>
<path d="M19.8333 9.37495C18.452 9.37495 17.1272 8.82622 16.1505 7.84946C15.1737 6.87271 14.625 5.54795 14.625 4.16662H5.39584L5.08334 3.17356C5.04901 3.06694 4.9894 2.9702 4.90959 2.8916C4.82978 2.813 4.73214 2.75487 4.62501 2.72217L1.77778 1.84717C1.69024 1.82027 1.59825 1.81087 1.50707 1.81952C1.41589 1.82817 1.32731 1.85469 1.24638 1.89758C1.08293 1.98418 0.960588 2.13217 0.906255 2.30898C0.851923 2.48579 0.870054 2.67694 0.956659 2.84039C1.04326 3.00383 1.19125 3.12617 1.36806 3.18051L3.86112 3.94439L7.04167 13.993L5.90973 14.9236L5.81945 15.0138C5.53952 15.338 5.38092 15.7493 5.37078 16.1775C5.36065 16.6057 5.49961 17.024 5.76389 17.3611C5.95317 17.5912 6.19369 17.7739 6.46621 17.8945C6.73873 18.0151 7.03569 18.0702 7.33334 18.0555H18.9236C19.1078 18.0555 19.2844 17.9823 19.4147 17.8521C19.5449 17.7219 19.6181 17.5452 19.6181 17.3611C19.6181 17.1769 19.5449 17.0002 19.4147 16.87C19.2844 16.7398 19.1078 16.6666 18.9236 16.6666H7.22223C7.14226 16.6639 7.06435 16.6406 6.99602 16.5989C6.92769 16.5573 6.87125 16.4988 6.83215 16.4289C6.79306 16.3591 6.77263 16.2804 6.77284 16.2004C6.77304 16.1204 6.79388 16.0418 6.83334 15.9722L8.50695 14.5833H19.2222C19.3809 14.5879 19.5363 14.5381 19.6626 14.442C19.789 14.346 19.8787 14.2096 19.9167 14.0555L21.1042 9.19439C20.6896 9.30682 20.2628 9.36747 19.8333 9.37495Z" fill="#D0102D"/>
<path d="M19.8333 7.63878C21.751 7.63878 23.3055 6.08421 23.3055 4.16656C23.3055 2.2489 21.751 0.694336 19.8333 0.694336C17.9157 0.694336 16.3611 2.2489 16.3611 4.16656C16.3611 6.08421 17.9157 7.63878 19.8333 7.63878Z" fill="#D0102D"/>
</svg>
